<svg width="1589" height="1579" viewBox="0 0 1589 1579" fill="none" xmlns="http://www.w3.org/2000/svg">
<ellipse cx="794.454" cy="789.5" rx="794.454" ry="789.5" fill="url(#paint0_linear_1835_22)"/>
<path d="M410.909 761.734C409.169 755.686 406.725 750.341 403.576 745.701C400.427 740.978 396.574 737.001 392.017 733.769C387.543 730.455 382.405 727.928 376.605 726.188C370.888 724.447 364.549 723.577 357.589 723.577C344.58 723.577 333.145 726.809 323.285 733.272C313.507 739.735 305.884 749.14 300.415 761.486C294.947 773.749 292.212 788.747 292.212 806.479C292.212 824.211 294.905 839.291 300.291 851.72C305.677 864.149 313.3 873.637 323.161 880.183C333.021 886.646 344.663 889.877 358.086 889.877C370.266 889.877 380.665 887.723 389.283 883.414C397.983 879.022 404.612 872.849 409.169 864.895C413.809 856.94 416.129 847.536 416.129 836.681L427.067 838.297H361.442V797.778H467.958V829.845C467.958 852.217 463.235 871.441 453.789 887.516C444.343 903.508 431.334 915.854 414.762 924.554C398.19 933.171 379.215 937.48 357.837 937.48C333.974 937.48 313.01 932.219 294.947 921.695C276.883 911.089 262.797 896.05 252.688 876.578C242.662 857.023 237.649 833.822 237.649 806.976C237.649 786.344 240.632 767.949 246.598 751.791C252.647 735.551 261.098 721.796 271.953 710.527C282.808 699.258 295.444 690.682 309.862 684.799C324.279 678.916 339.898 675.974 356.719 675.974C371.136 675.974 384.56 678.087 396.989 682.313C409.418 686.456 420.438 692.339 430.05 699.962C439.744 707.585 447.657 716.659 453.789 727.182C459.921 737.622 463.857 749.14 465.597 761.734H410.909ZM665.61 679.455H719.427V844.76C719.427 863.321 714.994 879.561 706.128 893.482C697.345 907.402 685.041 918.257 669.214 926.045C653.388 933.751 634.952 937.604 613.905 937.604C592.776 937.604 574.298 933.751 558.472 926.045C542.646 918.257 530.341 907.402 521.558 893.482C512.775 879.561 508.383 863.321 508.383 844.76V679.455H562.201V840.161C562.201 849.856 564.314 858.473 568.54 866.013C572.848 873.554 578.897 879.478 586.686 883.787C594.475 888.096 603.548 890.25 613.905 890.25C624.346 890.25 633.419 888.096 641.125 883.787C648.914 879.478 654.921 873.554 659.147 866.013C663.456 858.473 665.61 849.856 665.61 840.161V679.455ZM817.523 679.455V934H763.706V679.455H817.523ZM952.036 934H861.801V679.455H952.781C978.385 679.455 1000.43 684.55 1018.9 694.742C1037.38 704.851 1051.59 719.393 1061.53 738.368C1071.56 757.343 1076.57 780.046 1076.57 806.479C1076.57 832.994 1071.56 855.78 1061.53 874.838C1051.59 893.896 1037.3 908.521 1018.66 918.712C1000.09 928.904 977.888 934 952.036 934ZM915.619 887.888H949.798C965.708 887.888 979.089 885.071 989.944 879.437C1000.88 873.719 1009.08 864.895 1014.55 852.963C1020.11 840.948 1022.88 825.454 1022.88 806.479C1022.88 787.67 1020.11 772.299 1014.55 760.367C1009.08 748.435 1000.92 739.652 990.068 734.018C979.214 728.383 965.832 725.566 949.923 725.566H915.619V887.888ZM1350.35 806.727C1350.35 834.485 1345.09 858.1 1334.57 877.572C1324.13 897.045 1309.88 911.918 1291.81 922.192C1273.83 932.384 1253.61 937.48 1231.16 937.48C1208.54 937.48 1188.24 932.343 1170.26 922.068C1152.28 911.794 1138.07 896.92 1127.63 877.448C1117.19 857.976 1111.97 834.402 1111.97 806.727C1111.97 778.969 1117.19 755.354 1127.63 735.882C1138.07 716.41 1152.28 701.578 1170.26 691.386C1188.24 681.112 1208.54 675.974 1231.16 675.974C1253.61 675.974 1273.83 681.112 1291.81 691.386C1309.88 701.578 1324.13 716.41 1334.57 735.882C1345.09 755.354 1350.35 778.969 1350.35 806.727ZM1295.79 806.727C1295.79 788.747 1293.1 773.583 1287.71 761.237C1282.41 748.891 1274.91 739.528 1265.21 733.148C1255.52 726.768 1244.17 723.577 1231.16 723.577C1218.15 723.577 1206.8 726.768 1197.1 733.148C1187.41 739.528 1179.87 748.891 1174.48 761.237C1169.18 773.583 1166.53 788.747 1166.53 806.727C1166.53 824.708 1169.18 839.871 1174.48 852.217C1179.87 864.563 1187.41 873.927 1197.1 880.307C1206.8 886.687 1218.15 889.877 1231.16 889.877C1244.17 889.877 1255.52 886.687 1265.21 880.307C1274.91 873.927 1282.41 864.563 1287.71 852.217C1293.1 839.871 1295.79 824.708 1295.79 806.727Z" fill="white"/>
<defs>
<linearGradient id="paint0_linear_1835_22" x1="-0.393068" y1="771.703" x2="1588.68" y2="807.935" gradientUnits="userSpaceOnUse">
<stop stop-color="#F98174"/>
<stop offset="1" stop-color="#FFD300"/>
</linearGradient>
</defs>
</svg>
